<?xml version="1.0" encoding="UTF-8"?><svg xmlns="http://www.w3.org/2000/svg" xmlns:xlink="http://www.w3.org/1999/xlink" fill-opacity="1" color-rendering="auto" color-interpolation="auto" text-rendering="auto" stroke="black" stroke-linecap="square" width="430" stroke-miterlimit="10" shape-rendering="auto" stroke-opacity="1" fill="black" stroke-dasharray="none" font-weight="normal" stroke-width="1" height="323" font-family="'Dialog'" font-style="normal" stroke-linejoin="miter" font-size="12px" stroke-dashoffset="0" image-rendering="auto">
  <!--Generated by ySVG 2.5-->
  <defs id="genericDefs"/>
  <g>
    <defs id="defs1">
      <linearGradient x1="185.5886" gradientUnits="userSpaceOnUse" x2="265.5886" y1="98.695" y2="126.695" id="linearGradient1" spreadMethod="reflect">
        <stop stop-opacity="1" stop-color="rgb(232,238,247)" offset="0%"/>
        <stop stop-opacity="1" stop-color="rgb(0,204,255)" offset="100%"/>
      </linearGradient>
      <linearGradient x1="210.0277" gradientUnits="userSpaceOnUse" x2="310.0277" y1="36.0075" y2="76.0075" id="linearGradient2" spreadMethod="reflect">
        <stop stop-opacity="1" stop-color="rgb(232,238,247)" offset="0%"/>
        <stop stop-opacity="1" stop-color="rgb(0,204,255)" offset="100%"/>
      </linearGradient>
      <linearGradient x1="129.1685" gradientUnits="userSpaceOnUse" x2="209.1685" y1="153.5075" y2="181.5075" id="linearGradient3" spreadMethod="reflect">
        <stop stop-opacity="1" stop-color="rgb(232,238,247)" offset="0%"/>
        <stop stop-opacity="1" stop-color="rgb(0,204,255)" offset="100%"/>
      </linearGradient>
      <linearGradient x1="215.5886" gradientUnits="userSpaceOnUse" x2="295.5886" y1="153.5075" y2="181.5075" id="linearGradient4" spreadMethod="reflect">
        <stop stop-opacity="1" stop-color="rgb(232,238,247)" offset="0%"/>
        <stop stop-opacity="1" stop-color="rgb(0,204,255)" offset="100%"/>
      </linearGradient>
      <linearGradient x1="356.7102" gradientUnits="userSpaceOnUse" x2="395.1331" y1="98.695" y2="126.695" id="linearGradient5" spreadMethod="reflect">
        <stop stop-opacity="1" stop-color="rgb(232,238,247)" offset="0%"/>
        <stop stop-opacity="1" stop-color="rgb(0,204,255)" offset="100%"/>
      </linearGradient>
      <linearGradient x1="271.1494" gradientUnits="userSpaceOnUse" x2="351.1494" y1="98.695" y2="126.695" id="linearGradient6" spreadMethod="reflect">
        <stop stop-opacity="1" stop-color="rgb(232,238,247)" offset="0%"/>
        <stop stop-opacity="1" stop-color="rgb(0,204,255)" offset="100%"/>
      </linearGradient>
      <linearGradient x1="100.0277" gradientUnits="userSpaceOnUse" x2="180.0277" y1="98.695" y2="126.695" id="linearGradient7" spreadMethod="reflect">
        <stop stop-opacity="1" stop-color="rgb(232,238,247)" offset="0%"/>
        <stop stop-opacity="1" stop-color="rgb(0,204,255)" offset="100%"/>
      </linearGradient>
      <linearGradient x1="215.5886" gradientUnits="userSpaceOnUse" x2="295.5886" y1="201.731" y2="229.731" id="linearGradient8" spreadMethod="reflect">
        <stop stop-opacity="1" stop-color="rgb(232,238,247)" offset="0%"/>
        <stop stop-opacity="1" stop-color="rgb(0,204,255)" offset="100%"/>
      </linearGradient>
      <linearGradient x1="129.1685" gradientUnits="userSpaceOnUse" x2="209.1685" y1="258.2518" y2="286.2518" id="linearGradient9" spreadMethod="reflect">
        <stop stop-opacity="1" stop-color="rgb(232,238,247)" offset="0%"/>
        <stop stop-opacity="1" stop-color="rgb(0,204,255)" offset="100%"/>
      </linearGradient>
      <linearGradient x1="215.5886" gradientUnits="userSpaceOnUse" x2="295.5886" y1="258.2518" y2="286.2518" id="linearGradient10" spreadMethod="reflect">
        <stop stop-opacity="1" stop-color="rgb(232,238,247)" offset="0%"/>
        <stop stop-opacity="1" stop-color="rgb(0,204,255)" offset="100%"/>
      </linearGradient>
      <linearGradient x1="301.512" gradientUnits="userSpaceOnUse" x2="381.512" y1="258.2518" y2="286.2518" id="linearGradient11" spreadMethod="reflect">
        <stop stop-opacity="1" stop-color="rgb(232,238,247)" offset="0%"/>
        <stop stop-opacity="1" stop-color="rgb(0,204,255)" offset="100%"/>
      </linearGradient>
      <linearGradient x1="387.4354" gradientUnits="userSpaceOnUse" x2="425.8583" y1="258.2518" y2="286.2518" id="linearGradient12" spreadMethod="reflect">
        <stop stop-opacity="1" stop-color="rgb(232,238,247)" offset="0%"/>
        <stop stop-opacity="1" stop-color="rgb(0,204,255)" offset="100%"/>
      </linearGradient>
      <linearGradient x1="72.9433" gradientUnits="userSpaceOnUse" x2="115.8587" y1="300.1747" y2="328.1747" id="linearGradient13" spreadMethod="reflect">
        <stop stop-opacity="1" stop-color="rgb(232,238,247)" offset="0%"/>
        <stop stop-opacity="1" stop-color="rgb(255,255,153)" offset="100%"/>
      </linearGradient>
      <linearGradient x1="26.2362" gradientUnits="userSpaceOnUse" x2="64.659" y1="300.1747" y2="328.1747" id="linearGradient14" spreadMethod="reflect">
        <stop stop-opacity="1" stop-color="rgb(232,238,247)" offset="0%"/>
        <stop stop-opacity="1" stop-color="rgb(0,204,255)" offset="100%"/>
      </linearGradient>
      <linearGradient x1="199.4735" gradientUnits="userSpaceOnUse" x2="242.3889" y1="300.1747" y2="328.1747" id="linearGradient15" spreadMethod="reflect">
        <stop stop-opacity="1" stop-color="rgb(232,238,247)" offset="0%"/>
        <stop stop-opacity="1" stop-color="rgb(255,255,153)" offset="100%"/>
      </linearGradient>
      <linearGradient x1="249.065" gradientUnits="userSpaceOnUse" x2="287.4879" y1="300.1747" y2="328.1747" id="linearGradient16" spreadMethod="reflect">
        <stop stop-opacity="1" stop-color="rgb(232,238,247)" offset="0%"/>
        <stop stop-opacity="1" stop-color="rgb(255,255,153)" offset="100%"/>
      </linearGradient>
      <linearGradient x1="122.1482" gradientUnits="userSpaceOnUse" x2="193.184" y1="300.1747" y2="328.1747" id="linearGradient17" spreadMethod="reflect">
        <stop stop-opacity="1" stop-color="rgb(232,238,247)" offset="0%"/>
        <stop stop-opacity="1" stop-color="rgb(255,255,153)" offset="100%"/>
      </linearGradient>
      <clipPath clipPathUnits="userSpaceOnUse" id="clipPath1">
        <path d="M0 0 L430 0 L430 323 L0 323 L0 0 Z"/>
      </clipPath>
      <clipPath clipPathUnits="userSpaceOnUse" id="clipPath2">
        <path d="M11 21 L441 21 L441 344 L11 344 L11 21 Z"/>
      </clipPath>
    </defs>
    <g fill="white" text-rendering="geometricPrecision" shape-rendering="geometricPrecision" transform="translate(-11,-21)" stroke="white">
      <rect x="11" width="430" height="323" y="21" clip-path="url(#clipPath2)" stroke="none"/>
    </g>
    <g fill="url(#linearGradient1)" text-rendering="geometricPrecision" shape-rendering="geometricPrecision" transform="matrix(1,0,0,1,-11,-21)" stroke="url(#linearGradient1)">
      <path d="M195.5886 98.695 L265.5886 98.695 L265.5886 126.695 L185.5886 126.695 L185.5886 108.695 Z" stroke="none" clip-path="url(#clipPath2)"/>
    </g>
    <g stroke-linecap="butt" transform="matrix(1,0,0,1,-11,-21)" fill="rgb(153,153,153)" text-rendering="geometricPrecision" shape-rendering="geometricPrecision" stroke="rgb(153,153,153)" stroke-miterlimit="1.45">
      <path fill="none" d="M195.5886 98.695 L265.5886 98.695 L265.5886 126.695 L185.5886 126.695 L185.5886 108.695 Z" clip-path="url(#clipPath2)"/>
    </g>
    <g font-size="11px" stroke-linecap="butt" transform="matrix(1,0,0,1,-11,-21)" text-rendering="geometricPrecision" font-family="sans-serif" shape-rendering="geometricPrecision" stroke-miterlimit="1.45">
      <text x="215.4587" xml:space="preserve" y="116.5031" clip-path="url(#clipPath2)" stroke="none">dev</text>
    </g>
    <g fill="url(#linearGradient2)" text-rendering="geometricPrecision" shape-rendering="geometricPrecision" transform="matrix(1,0,0,1,-11,-21)" stroke="url(#linearGradient2)">
      <ellipse rx="50" ry="20" clip-path="url(#clipPath2)" cx="260.0277" cy="56.0075" stroke="none"/>
    </g>
    <g stroke-linecap="butt" transform="matrix(1,0,0,1,-11,-21)" fill="rgb(153,153,153)" text-rendering="geometricPrecision" shape-rendering="geometricPrecision" stroke="rgb(153,153,153)" stroke-miterlimit="1.45">
      <ellipse rx="50" fill="none" ry="20" clip-path="url(#clipPath2)" cx="260.0277" cy="56.0075"/>
    </g>
    <g font-size="11px" stroke-linecap="butt" transform="matrix(1,0,0,1,-11,-21)" text-rendering="geometricPrecision" font-family="sans-serif" shape-rendering="geometricPrecision" font-weight="bold" stroke-miterlimit="1.45">
      <text x="216.4896" xml:space="preserve" y="53.4133" clip-path="url(#clipPath2)" stroke="none">  GIS.lab Web </text>
      <text x="228.0052" xml:space="preserve" y="66.2179" clip-path="url(#clipPath2)" stroke="none">repository</text>
    </g>
    <g fill="url(#linearGradient3)" text-rendering="geometricPrecision" shape-rendering="geometricPrecision" transform="matrix(1,0,0,1,-11,-21)" stroke="url(#linearGradient3)">
      <path d="M139.1685 153.5075 L209.1685 153.5075 L209.1685 181.5075 L129.1685 181.5075 L129.1685 163.5075 Z" stroke="none" clip-path="url(#clipPath2)"/>
    </g>
    <g stroke-linecap="butt" transform="matrix(1,0,0,1,-11,-21)" fill="rgb(153,153,153)" text-rendering="geometricPrecision" shape-rendering="geometricPrecision" stroke="rgb(153,153,153)" stroke-miterlimit="1.45">
      <path fill="none" d="M139.1685 153.5075 L209.1685 153.5075 L209.1685 181.5075 L129.1685 181.5075 L129.1685 163.5075 Z" clip-path="url(#clipPath2)"/>
    </g>
    <g font-size="11px" stroke-linecap="butt" transform="matrix(1,0,0,1,-11,-21)" text-rendering="geometricPrecision" font-family="sans-serif" shape-rendering="geometricPrecision" stroke-miterlimit="1.45">
      <text x="152.8807" xml:space="preserve" y="171.3156" clip-path="url(#clipPath2)" stroke="none">cache</text>
    </g>
    <g fill="url(#linearGradient4)" text-rendering="geometricPrecision" shape-rendering="geometricPrecision" transform="matrix(1,0,0,1,-11,-21)" stroke="url(#linearGradient4)">
      <path d="M225.5886 153.5075 L295.5886 153.5075 L295.5886 181.5075 L215.5886 181.5075 L215.5886 163.5075 Z" stroke="none" clip-path="url(#clipPath2)"/>
    </g>
    <g stroke-linecap="butt" transform="matrix(1,0,0,1,-11,-21)" fill="rgb(153,153,153)" text-rendering="geometricPrecision" shape-rendering="geometricPrecision" stroke="rgb(153,153,153)" stroke-miterlimit="1.45">
      <path fill="none" d="M225.5886 153.5075 L295.5886 153.5075 L295.5886 181.5075 L215.5886 181.5075 L215.5886 163.5075 Z" clip-path="url(#clipPath2)"/>
    </g>
    <g font-size="11px" stroke-linecap="butt" transform="matrix(1,0,0,1,-11,-21)" text-rendering="geometricPrecision" font-family="sans-serif" shape-rendering="geometricPrecision" stroke-miterlimit="1.45">
      <text x="235.7128" xml:space="preserve" y="171.3156" clip-path="url(#clipPath2)" stroke="none">publish</text>
    </g>
    <g fill="url(#linearGradient5)" text-rendering="geometricPrecision" shape-rendering="geometricPrecision" transform="matrix(1,0,0,1,-11,-21)" stroke="url(#linearGradient5)">
      <path d="M366.7102 98.695 L395.1331 98.695 L395.1331 126.695 L356.7102 126.695 L356.7102 108.695 Z" stroke="none" clip-path="url(#clipPath2)"/>
    </g>
    <g stroke-linecap="butt" transform="matrix(1,0,0,1,-11,-21)" fill="rgb(153,153,153)" text-rendering="geometricPrecision" shape-rendering="geometricPrecision" stroke="rgb(153,153,153)" stroke-miterlimit="1.45">
      <path fill="none" d="M366.7102 98.695 L395.1331 98.695 L395.1331 126.695 L356.7102 126.695 L356.7102 108.695 Z" clip-path="url(#clipPath2)"/>
    </g>
    <g font-size="11px" stroke-linecap="butt" transform="matrix(1,0,0,1,-11,-21)" text-rendering="geometricPrecision" font-family="sans-serif" shape-rendering="geometricPrecision" stroke-miterlimit="1.45">
      <text x="370.6768" xml:space="preserve" y="116.5031" clip-path="url(#clipPath2)" stroke="none">...</text>
    </g>
    <g fill="url(#linearGradient6)" text-rendering="geometricPrecision" shape-rendering="geometricPrecision" transform="matrix(1,0,0,1,-11,-21)" stroke="url(#linearGradient6)">
      <path d="M281.1494 98.695 L351.1494 98.695 L351.1494 126.695 L271.1494 126.695 L271.1494 108.695 Z" stroke="none" clip-path="url(#clipPath2)"/>
    </g>
    <g stroke-linecap="butt" transform="matrix(1,0,0,1,-11,-21)" fill="rgb(153,153,153)" text-rendering="geometricPrecision" shape-rendering="geometricPrecision" stroke="rgb(153,153,153)" stroke-miterlimit="1.45">
      <path fill="none" d="M281.1494 98.695 L351.1494 98.695 L351.1494 126.695 L271.1494 126.695 L271.1494 108.695 Z" clip-path="url(#clipPath2)"/>
    </g>
    <g font-size="11px" stroke-linecap="butt" transform="matrix(1,0,0,1,-11,-21)" text-rendering="geometricPrecision" font-family="sans-serif" shape-rendering="geometricPrecision" stroke-miterlimit="1.45">
      <text x="301.2693" xml:space="preserve" y="116.5031" clip-path="url(#clipPath2)" stroke="none">doc</text>
    </g>
    <g stroke-linecap="butt" transform="matrix(1,0,0,1,-11,-21)" fill="red" text-rendering="geometricPrecision" shape-rendering="geometricPrecision" stroke="red" stroke-miterlimit="1.45">
      <ellipse rx="52.228" fill="none" ry="23.2841" clip-path="url(#clipPath2)" cx="255.5886" cy="215.731"/>
    </g>
    <g fill="url(#linearGradient7)" text-rendering="geometricPrecision" shape-rendering="geometricPrecision" transform="matrix(1,0,0,1,-11,-21)" stroke="url(#linearGradient7)">
      <path d="M110.0277 98.695 L180.0277 98.695 L180.0277 126.695 L100.0277 126.695 L100.0277 108.695 Z" stroke="none" clip-path="url(#clipPath2)"/>
    </g>
    <g stroke-linecap="butt" transform="matrix(1,0,0,1,-11,-21)" fill="rgb(153,153,153)" text-rendering="geometricPrecision" shape-rendering="geometricPrecision" stroke="rgb(153,153,153)" stroke-miterlimit="1.45">
      <path fill="none" d="M110.0277 98.695 L180.0277 98.695 L180.0277 126.695 L100.0277 126.695 L100.0277 108.695 Z" clip-path="url(#clipPath2)"/>
    </g>
    <g font-size="11px" stroke-linecap="butt" transform="matrix(1,0,0,1,-11,-21)" text-rendering="geometricPrecision" font-family="sans-serif" shape-rendering="geometricPrecision" stroke-miterlimit="1.45">
      <text x="122.056" xml:space="preserve" y="116.5031" clip-path="url(#clipPath2)" stroke="none">clients</text>
    </g>
    <g fill="url(#linearGradient8)" text-rendering="geometricPrecision" shape-rendering="geometricPrecision" transform="matrix(1,0,0,1,-11,-21)" stroke="url(#linearGradient8)">
      <path d="M225.5886 201.731 L295.5886 201.731 L295.5886 229.731 L215.5886 229.731 L215.5886 211.731 Z" stroke="none" clip-path="url(#clipPath2)"/>
    </g>
    <g stroke-linecap="butt" transform="matrix(1,0,0,1,-11,-21)" fill="rgb(153,153,153)" text-rendering="geometricPrecision" shape-rendering="geometricPrecision" stroke="rgb(153,153,153)" stroke-miterlimit="1.45">
      <path fill="none" d="M225.5886 201.731 L295.5886 201.731 L295.5886 229.731 L215.5886 229.731 L215.5886 211.731 Z" clip-path="url(#clipPath2)"/>
    </g>
    <g font-size="11px" stroke-linecap="butt" transform="matrix(1,0,0,1,-11,-21)" text-rendering="geometricPrecision" font-family="sans-serif" shape-rendering="geometricPrecision" stroke-miterlimit="1.45">
      <text x="234.1982" xml:space="preserve" y="219.5391" clip-path="url(#clipPath2)" stroke="none">vagrant</text>
    </g>
    <g fill="url(#linearGradient9)" text-rendering="geometricPrecision" shape-rendering="geometricPrecision" transform="matrix(1,0,0,1,-11,-21)" stroke="url(#linearGradient9)">
      <path d="M139.1685 258.2518 L209.1685 258.2518 L209.1685 286.2518 L129.1685 286.2518 L129.1685 268.2518 Z" stroke="none" clip-path="url(#clipPath2)"/>
    </g>
    <g stroke-linecap="butt" transform="matrix(1,0,0,1,-11,-21)" fill="rgb(153,153,153)" text-rendering="geometricPrecision" shape-rendering="geometricPrecision" stroke="rgb(153,153,153)" stroke-miterlimit="1.45">
      <path fill="none" d="M139.1685 258.2518 L209.1685 258.2518 L209.1685 286.2518 L129.1685 286.2518 L129.1685 268.2518 Z" clip-path="url(#clipPath2)"/>
    </g>
    <g font-size="11px" stroke-linecap="butt" transform="matrix(1,0,0,1,-11,-21)" text-rendering="geometricPrecision" font-family="sans-serif" shape-rendering="geometricPrecision" stroke-miterlimit="1.45">
      <text x="144.448" xml:space="preserve" y="276.0599" clip-path="url(#clipPath2)" stroke="none">project A</text>
    </g>
    <g fill="url(#linearGradient10)" text-rendering="geometricPrecision" shape-rendering="geometricPrecision" transform="matrix(1,0,0,1,-11,-21)" stroke="url(#linearGradient10)">
      <path d="M225.5886 258.2518 L295.5886 258.2518 L295.5886 286.2518 L215.5886 286.2518 L215.5886 268.2518 Z" stroke="none" clip-path="url(#clipPath2)"/>
    </g>
    <g stroke-linecap="butt" transform="matrix(1,0,0,1,-11,-21)" fill="rgb(153,153,153)" text-rendering="geometricPrecision" shape-rendering="geometricPrecision" stroke="rgb(153,153,153)" stroke-miterlimit="1.45">
      <path fill="none" d="M225.5886 258.2518 L295.5886 258.2518 L295.5886 286.2518 L215.5886 286.2518 L215.5886 268.2518 Z" clip-path="url(#clipPath2)"/>
    </g>
    <g font-size="11px" stroke-linecap="butt" transform="matrix(1,0,0,1,-11,-21)" text-rendering="geometricPrecision" font-family="sans-serif" shape-rendering="geometricPrecision" stroke-miterlimit="1.45">
      <text x="230.8574" xml:space="preserve" y="276.0599" clip-path="url(#clipPath2)" stroke="none">project B</text>
    </g>
    <g fill="url(#linearGradient11)" text-rendering="geometricPrecision" shape-rendering="geometricPrecision" transform="matrix(1,0,0,1,-11,-21)" stroke="url(#linearGradient11)">
      <path d="M311.512 258.2518 L381.512 258.2518 L381.512 286.2518 L301.512 286.2518 L301.512 268.2518 Z" stroke="none" clip-path="url(#clipPath2)"/>
    </g>
    <g stroke-linecap="butt" transform="matrix(1,0,0,1,-11,-21)" fill="rgb(153,153,153)" text-rendering="geometricPrecision" shape-rendering="geometricPrecision" stroke="rgb(153,153,153)" stroke-miterlimit="1.45">
      <path fill="none" d="M311.512 258.2518 L381.512 258.2518 L381.512 286.2518 L301.512 286.2518 L301.512 268.2518 Z" clip-path="url(#clipPath2)"/>
    </g>
    <g font-size="11px" stroke-linecap="butt" transform="matrix(1,0,0,1,-11,-21)" text-rendering="geometricPrecision" font-family="sans-serif" shape-rendering="geometricPrecision" stroke-miterlimit="1.45">
      <text x="316.7137" xml:space="preserve" y="276.0599" clip-path="url(#clipPath2)" stroke="none">project C</text>
    </g>
    <g fill="url(#linearGradient12)" text-rendering="geometricPrecision" shape-rendering="geometricPrecision" transform="matrix(1,0,0,1,-11,-21)" stroke="url(#linearGradient12)">
      <path d="M397.4354 258.2518 L425.8583 258.2518 L425.8583 286.2518 L387.4354 286.2518 L387.4354 268.2518 Z" stroke="none" clip-path="url(#clipPath2)"/>
    </g>
    <g stroke-linecap="butt" transform="matrix(1,0,0,1,-11,-21)" fill="rgb(153,153,153)" text-rendering="geometricPrecision" shape-rendering="geometricPrecision" stroke="rgb(153,153,153)" stroke-miterlimit="1.45">
      <path fill="none" d="M397.4354 258.2518 L425.8583 258.2518 L425.8583 286.2518 L387.4354 286.2518 L387.4354 268.2518 Z" clip-path="url(#clipPath2)"/>
    </g>
    <g font-size="11px" stroke-linecap="butt" transform="matrix(1,0,0,1,-11,-21)" text-rendering="geometricPrecision" font-family="sans-serif" shape-rendering="geometricPrecision" stroke-miterlimit="1.45">
      <text x="401.402" xml:space="preserve" y="276.0599" clip-path="url(#clipPath2)" stroke="none">...</text>
    </g>
    <g fill="url(#linearGradient13)" text-rendering="geometricPrecision" shape-rendering="geometricPrecision" transform="matrix(1,0,0,1,-11,-21)" stroke="url(#linearGradient13)">
      <path d="M72.9433 300.1747 L115.8587 300.1747 L115.8587 328.1747 L72.9433 328.1747 Z" stroke="none" clip-path="url(#clipPath2)"/>
    </g>
    <g stroke-linecap="butt" transform="matrix(1,0,0,1,-11,-21)" fill="rgb(153,204,255)" text-rendering="geometricPrecision" shape-rendering="geometricPrecision" stroke="rgb(153,204,255)" stroke-miterlimit="1.45">
      <path fill="none" d="M72.9433 300.1747 L115.8587 300.1747 L115.8587 328.1747 L72.9433 328.1747 Z" clip-path="url(#clipPath2)"/>
    </g>
    <g font-size="10px" stroke-linecap="butt" transform="matrix(1,0,0,1,-11,-21)" text-rendering="geometricPrecision" font-family="sans-serif" shape-rendering="geometricPrecision" font-style="italic" stroke-miterlimit="1.45">
      <text x="81.359" xml:space="preserve" y="317.6366" clip-path="url(#clipPath2)" stroke="none">*.qgs</text>
    </g>
    <g fill="url(#linearGradient14)" text-rendering="geometricPrecision" shape-rendering="geometricPrecision" transform="matrix(1,0,0,1,-11,-21)" stroke="url(#linearGradient14)">
      <path d="M36.2362 300.1747 L64.659 300.1747 L64.659 328.1747 L26.2362 328.1747 L26.2362 310.1747 Z" stroke="none" clip-path="url(#clipPath2)"/>
    </g>
    <g stroke-linecap="butt" transform="matrix(1,0,0,1,-11,-21)" fill="rgb(153,153,153)" text-rendering="geometricPrecision" shape-rendering="geometricPrecision" stroke="rgb(153,153,153)" stroke-miterlimit="1.45">
      <path fill="none" d="M36.2362 300.1747 L64.659 300.1747 L64.659 328.1747 L26.2362 328.1747 L26.2362 310.1747 Z" clip-path="url(#clipPath2)"/>
    </g>
    <g font-size="11px" stroke-linecap="butt" transform="matrix(1,0,0,1,-11,-21)" text-rendering="geometricPrecision" font-family="sans-serif" shape-rendering="geometricPrecision" stroke-miterlimit="1.45">
      <text x="40.2027" xml:space="preserve" y="317.9828" clip-path="url(#clipPath2)" stroke="none">...</text>
    </g>
    <g fill="url(#linearGradient15)" text-rendering="geometricPrecision" shape-rendering="geometricPrecision" transform="matrix(1,0,0,1,-11,-21)" stroke="url(#linearGradient15)">
      <path d="M199.4735 300.1747 L242.3889 300.1747 L242.3889 328.1747 L199.4735 328.1747 Z" stroke="none" clip-path="url(#clipPath2)"/>
    </g>
    <g stroke-linecap="butt" transform="matrix(1,0,0,1,-11,-21)" fill="rgb(153,204,255)" text-rendering="geometricPrecision" shape-rendering="geometricPrecision" stroke="rgb(153,204,255)" stroke-miterlimit="1.45">
      <path fill="none" d="M199.4735 300.1747 L242.3889 300.1747 L242.3889 328.1747 L199.4735 328.1747 Z" clip-path="url(#clipPath2)"/>
    </g>
    <g font-size="10px" stroke-linecap="butt" transform="matrix(1,0,0,1,-11,-21)" text-rendering="geometricPrecision" font-family="sans-serif" shape-rendering="geometricPrecision" font-style="italic" stroke-miterlimit="1.45">
      <text x="203.8706" xml:space="preserve" y="317.6366" clip-path="url(#clipPath2)" stroke="none">*.meta</text>
    </g>
    <g fill="url(#linearGradient16)" text-rendering="geometricPrecision" shape-rendering="geometricPrecision" transform="matrix(1,0,0,1,-11,-21)" stroke="url(#linearGradient16)">
      <path d="M249.065 300.1747 L287.4879 300.1747 L287.4879 328.1747 L249.065 328.1747 Z" stroke="none" clip-path="url(#clipPath2)"/>
    </g>
    <g stroke-linecap="butt" transform="matrix(1,0,0,1,-11,-21)" fill="rgb(153,204,255)" text-rendering="geometricPrecision" shape-rendering="geometricPrecision" stroke="rgb(153,204,255)" stroke-miterlimit="1.45">
      <path fill="none" d="M249.065 300.1747 L287.4879 300.1747 L287.4879 328.1747 L249.065 328.1747 Z" clip-path="url(#clipPath2)"/>
    </g>
    <g font-size="11px" stroke-linecap="butt" transform="matrix(1,0,0,1,-11,-21)" text-rendering="geometricPrecision" font-family="sans-serif" shape-rendering="geometricPrecision" font-style="italic" stroke-miterlimit="1.45">
      <text x="263.0316" xml:space="preserve" y="317.9828" clip-path="url(#clipPath2)" stroke="none">...</text>
    </g>
    <g fill="url(#linearGradient17)" text-rendering="geometricPrecision" shape-rendering="geometricPrecision" transform="matrix(1,0,0,1,-11,-21)" stroke="url(#linearGradient17)">
      <path d="M122.1482 300.1747 L193.184 300.1747 L193.184 328.1747 L122.1482 328.1747 Z" stroke="none" clip-path="url(#clipPath2)"/>
    </g>
    <g stroke-linecap="butt" transform="matrix(1,0,0,1,-11,-21)" fill="rgb(153,204,255)" text-rendering="geometricPrecision" shape-rendering="geometricPrecision" stroke="rgb(153,204,255)" stroke-miterlimit="1.45">
      <path fill="none" d="M122.1482 300.1747 L193.184 300.1747 L193.184 328.1747 L122.1482 328.1747 Z" clip-path="url(#clipPath2)"/>
    </g>
    <g font-size="10px" stroke-linecap="butt" transform="matrix(1,0,0,1,-11,-21)" text-rendering="geometricPrecision" font-family="sans-serif" shape-rendering="geometricPrecision" font-style="italic" stroke-miterlimit="1.45">
      <text x="127.5172" xml:space="preserve" y="317.6366" clip-path="url(#clipPath2)" stroke="none">*_&lt;TS&gt;.qgs</text>
    </g>
    <g stroke-linecap="butt" transform="matrix(1,0,0,1,-11,-21)" fill="rgb(153,153,153)" text-rendering="geometricPrecision" shape-rendering="geometricPrecision" stroke="rgb(153,153,153)" stroke-miterlimit="1.45">
      <path fill="none" d="M242.0851 74.6911 L221.8137 95.7997" clip-path="url(#clipPath2)"/>
    </g>
    <g stroke-linecap="butt" transform="matrix(1,0,0,1,-11,-21)" fill="rgb(153,153,153)" text-rendering="geometricPrecision" shape-rendering="geometricPrecision" stroke="rgb(153,153,153)" stroke-miterlimit="1.45">
      <path d="M219.0431 98.6848 L228.912 97.0706 L222.5064 95.0785 L220.2568 88.7587 Z" stroke="none" clip-path="url(#clipPath2)"/>
      <path fill="none" d="M211.1805 126.6925 L186.4586 150.71" clip-path="url(#clipPath2)"/>
      <path d="M183.5896 153.4973 L193.5085 152.2263 L187.1759 150.0132 L185.1467 143.6193 Z" clip-path="url(#clipPath2)" stroke="none"/>
      <path fill="none" d="M235.8718 126.6821 L253.2192 150.2779" clip-path="url(#clipPath2)"/>
      <path d="M255.5886 153.5007 L255.684 143.5011 L252.6269 149.4722 L246.0157 150.6092 Z" clip-path="url(#clipPath2)" stroke="none"/>
      <path fill="none" d="M296.8387 69.564 L372.1681 97.3058" clip-path="url(#clipPath2)"/>
      <path d="M375.9217 98.6882 L370.4881 90.2932 L371.2297 96.9603 L366.3411 101.5538 Z" clip-path="url(#clipPath2)" stroke="none"/>
      <path fill="none" d="M281.2385 74.0919 L307.0313 96.083" clip-path="url(#clipPath2)"/>
      <path d="M310.0752 98.6782 L307.8803 88.922 L306.2704 95.4342 L300.0947 98.0536 Z" clip-path="url(#clipPath2)" stroke="none"/>
      <path fill="none" d="M227.7133 71.2727 L173.3154 96.97" clip-path="url(#clipPath2)"/>
      <path d="M169.6987 98.6786 L179.495 100.6866 L174.2196 96.5429 L174.3694 89.8364 Z" clip-path="url(#clipPath2)" stroke="none"/>
      <path fill="none" d="M255.5886 181.4942 L255.5886 197.722" clip-path="url(#clipPath2)"/>
      <path d="M255.5886 201.722 L261.5886 193.722 L255.5886 196.722 L249.5886 193.722 Z" clip-path="url(#clipPath2)" stroke="none"/>
      <path fill="none" d="M234.1734 229.737 L193.9411 256.0499" clip-path="url(#clipPath2)"/>
      <path d="M190.5935 258.2393 L200.5728 258.8819 L194.778 255.5026 L194.0045 248.8391 Z" clip-path="url(#clipPath2)" stroke="none"/>
      <path fill="none" d="M255.5886 229.7232 L255.5886 254.2556" clip-path="url(#clipPath2)"/>
      <path d="M255.5886 258.2556 L261.5886 250.2556 L255.5886 253.2556 L249.5886 250.2556 Z" clip-path="url(#clipPath2)" stroke="none"/>
      <path fill="none" d="M276.8806 229.737 L316.8683 256.0411" clip-path="url(#clipPath2)"/>
      <path d="M320.2101 258.2393 L316.824 248.8301 L316.0329 255.4915 L310.2292 258.8555 Z" clip-path="url(#clipPath2)" stroke="none"/>
      <path fill="none" d="M295.578 228.903 L402.7794 257.2148" clip-path="url(#clipPath2)"/>
      <path d="M406.6469 258.2361 L400.4441 250.3923 L401.8126 256.9594 L397.38 261.9945 Z" clip-path="url(#clipPath2)" stroke="none"/>
      <path fill="none" d="M134.1613 286.2662 L103.1474 298.682" clip-path="url(#clipPath2)"/>
      <path d="M99.4339 300.1686 L109.0908 302.7657 L104.0757 298.3104 L104.631 291.6252 Z" clip-path="url(#clipPath2)" stroke="none"/>
      <path fill="none" d="M129.1465 281.2794 L49.3496 299.2789" clip-path="url(#clipPath2)"/>
      <path d="M45.4476 300.1591 L54.5718 304.2517 L50.3251 299.0589 L51.9313 292.5458 Z" clip-path="url(#clipPath2)" stroke="none"/>
      <path fill="none" d="M186.4312 286.2329 L200.5391 297.659" clip-path="url(#clipPath2)"/>
      <path d="M203.6475 300.1765 L201.207 290.4789 L199.762 297.0296 L193.6544 299.8041 Z" clip-path="url(#clipPath2)" stroke="none"/>
      <path fill="none" d="M209.1649 283.5142 L264.4261 299.0749" clip-path="url(#clipPath2)"/>
      <path d="M268.2764 300.1591 L262.2021 292.2153 L263.4636 298.8039 L258.9496 303.7661 Z" clip-path="url(#clipPath2)" stroke="none"/>
      <path fill="none" d="M165.3381 286.2124 L162.568 296.3088" clip-path="url(#clipPath2)"/>
      <path d="M161.5096 300.1663 L169.4125 294.0389 L162.8326 295.3445 L157.8402 290.8638 Z" clip-path="url(#clipPath2)" stroke="none"/>
    </g>
  </g>
</svg>
